<svg width="60" height="58" viewBox="0 0 60 58" fill="none" xmlns="http://www.w3.org/2000/svg">
<path d="M30 32.0946C32.0711 32.0946 33.75 30.498 33.75 28.5285C33.75 26.559 32.0711 24.9625 30 24.9625C27.9289 24.9625 26.25 26.559 26.25 28.5285C26.25 30.498 27.9289 32.0946 30 32.0946Z" fill="#7E5F20"/>
<path d="M30 7.13214C32.0711 7.13214 33.75 5.53556 33.75 3.56607C33.75 1.59658 32.0711 0 30 0C27.9289 0 26.25 1.59658 26.25 3.56607C26.25 5.53556 27.9289 7.13214 30 7.13214Z" fill="#7E5F20"/>
<path d="M48.5625 14.4426C50.6336 14.4426 52.3125 12.846 52.3125 10.8766C52.3125 8.90707 50.6336 7.31049 48.5625 7.31049C46.4914 7.31049 44.8125 8.90707 44.8125 10.8766C44.8125 12.846 46.4914 14.4426 48.5625 14.4426Z" fill="#7E5F20"/>
<path d="M56.25 32.0946C58.3211 32.0946 60 30.498 60 28.5285C60 26.559 58.3211 24.9625 56.25 24.9625C54.1789 24.9625 52.5 26.559 52.5 28.5285C52.5 30.498 54.1789 32.0946 56.25 32.0946Z" fill="#7E5F20"/>
<path d="M48.5625 49.7467C50.6336 49.7467 52.3125 48.1502 52.3125 46.1807C52.3125 44.2112 50.6336 42.6146 48.5625 42.6146C46.4914 42.6146 44.8125 44.2112 44.8125 46.1807C44.8125 48.1502 46.4914 49.7467 48.5625 49.7467Z" fill="#7E5F20"/>
<path d="M30 57.0571C32.0711 57.0571 33.75 55.4605 33.75 53.491C33.75 51.5215 32.0711 49.9249 30 49.9249C27.9289 49.9249 26.25 51.5215 26.25 53.491C26.25 55.4605 27.9289 57.0571 30 57.0571Z" fill="#7E5F20"/>
<path d="M11.4375 49.7467C13.5086 49.7467 15.1875 48.1502 15.1875 46.1807C15.1875 44.2112 13.5086 42.6146 11.4375 42.6146C9.36644 42.6146 7.6875 44.2112 7.6875 46.1807C7.6875 48.1502 9.36644 49.7467 11.4375 49.7467Z" fill="#7E5F20"/>
<path d="M3.75 32.0946C5.82107 32.0946 7.5 30.498 7.5 28.5285C7.5 26.559 5.82107 24.9625 3.75 24.9625C1.67893 24.9625 0 26.559 0 28.5285C0 30.498 1.67893 32.0946 3.75 32.0946Z" fill="#7E5F20"/>
<path d="M11.4375 14.4426C13.5086 14.4426 15.1875 12.846 15.1875 10.8766C15.1875 8.90707 13.5086 7.31049 11.4375 7.31049C9.36644 7.31049 7.6875 8.90707 7.6875 10.8766C7.6875 12.846 9.36644 14.4426 11.4375 14.4426Z" fill="#7E5F20"/>
</svg>
